<svg width="56" height="64" viewBox="0 0 56 64" fill="none" xmlns="http://www.w3.org/2000/svg">
<circle cx="28" cy="28" r="28" fill="#7065F0"/>
<g clip-path="url(#clip0_601_2485)">
<path d="M34.9999 24.71L29.6669 20.562C29.1989 20.1979 28.6229 20.0002 28.0299 20.0002C27.437 20.0002 26.8609 20.1979 26.3929 20.562L21.0589 24.71C20.7384 24.9593 20.479 25.2785 20.3007 25.6434C20.1223 26.0082 20.0297 26.4089 20.0299 26.815V34.015C20.0299 34.5454 20.2406 35.0542 20.6157 35.4292C20.9908 35.8043 21.4995 36.015 22.0299 36.015H34.0299C34.5603 36.015 35.0691 35.8043 35.4441 35.4292C35.8192 35.0542 36.0299 34.5454 36.0299 34.015V26.815C36.0299 25.992 35.6499 25.215 34.9999 24.71Z" fill="white" stroke="white" stroke-width="3" stroke-linecap="round" stroke-linejoin="round"/>
<path d="M32 31C29.79 32.333 26.208 32.333 24 31" stroke="#7065F0" stroke-width="3" stroke-linecap="round" stroke-linejoin="round"/>
</g>
<path d="M29.732 61C28.9622 62.3333 27.0377 62.3333 26.2679 61L22.8038 55C22.034 53.6667 22.9963 52 24.5359 52L31.4641 52C33.0037 52 33.966 53.6667 33.1962 55L29.732 61Z" fill="#7065F0"/>
<defs>
<clipPath id="clip0_601_2485">
<rect width="24" height="24" fill="white" transform="translate(16 16)"/>
</clipPath>
</defs>
</svg>
